# xmcd CD database file
#
# Track frame offsets:
#	150
#	21035
#	39232
#	57880
#	72627
#	86670
#	102455
#	123485
#	144192
#	155640
#	170887
#	183182
#
# Disc length: 2689 seconds
#
# Revision: 0
# Processed by: cddbd v1.5.1PL2 Copyright (c) Steve Scherf et al.
# Submitted via: CDex 1.51
#
DISCID=a40a7f0c
DTITLE=Michael Murphey - Geronimo's Cadillac
DYEAR=1972
DGENRE=Country
TTITLE0=Geronimo's Cadillac
TTITLE1=Natchez Trace
TTITLE2=Calico Silver
TTITLE3=Harbor For My Soul
TTITLE4=Rainbow Man
TTITLE5=Waking Up
TTITLE6=Crack Up In Las Cruces
TTITLE7=Boy From The Country
TTITLE8=What Am I Doin' Hangin' Around?
TTITLE9=Michael Angelo's Blues (Song For Hogman)
TTITLE10=Backslider's Wine
TTITLE11=The Lights Of The City
EXTD=YEAR: 1972
EXTT0=
EXTT1=
EXTT2=
EXTT3=
EXTT4=
EXTT5=
EXTT6=
EXTT7=
EXTT8=
EXTT9=
EXTT10=
EXTT11=
PLAYORDER=
